<?xml version="1.0" encoding="UTF-8"?>
<svg xmlns="http://www.w3.org/2000/svg" xmlns:xlink="http://www.w3.org/1999/xlink" width="330.71pt" height="424.65pt" viewBox="0 0 330.71 424.65" version="1.1">
<defs>
<clipPath id="clip1">
  <path d="M 0 0 L 330.710938 0 L 330.710938 424.648438 L 0 424.648438 Z M 0 0 "/>
</clipPath>
</defs>
<g id="surface1">
<g clip-path="url(#clip1)" clip-rule="nonzero">
<path style=" stroke:none;fill-rule:nonzero;fill:rgb(100%,100%,100%);fill-opacity:1;" d="M 173.734375 419.875 C 221.070313 395.609375 260.429688 365.347656 287.730469 326.21875 C 315.851563 285.90625 330.714844 240.222656 330.714844 194.082031 L 330.714844 0.00390625 L 0 0.00390625 L 0 194.082031 C 0 240.222656 14.863281 285.90625 42.992188 326.21875 C 70.28125 365.347656 109.644531 395.609375 156.980469 419.875 L 165.628906 424.648438 "/>
</g>
<path style=" stroke:none;fill-rule:nonzero;fill:rgb(0.39978%,0.799561%,0.799561%);fill-opacity:1;" d="M 15.027344 78.480469 L 315.6875 78.480469 L 315.6875 15.027344 L 15.027344 15.027344 Z M 15.027344 78.480469 "/>
<path style=" stroke:none;fill-rule:nonzero;fill:rgb(100%,100%,100%);fill-opacity:1;" d="M 102.09375 49.070313 C 102.09375 51.898438 101.730469 53.84375 100.976563 55.011719 C 100.199219 56.238281 98.921875 56.851563 97.179688 56.851563 C 95.445313 56.851563 94.171875 56.238281 93.394531 55.011719 C 92.644531 53.84375 92.28125 51.898438 92.28125 49.070313 L 92.28125 44.140625 C 92.28125 41.3125 92.644531 39.367188 93.394531 38.191406 C 94.171875 36.972656 95.453125 36.359375 97.179688 36.359375 C 98.921875 36.359375 100.199219 36.972656 100.976563 38.191406 C 101.730469 39.367188 102.09375 41.3125 102.09375 44.140625 Z M 113.300781 35.226563 C 112.332031 32.863281 111.027344 30.9375 109.417969 29.5 C 107.808594 28.054688 105.933594 27.019531 103.832031 26.394531 C 101.714844 25.765625 99.472656 25.453125 97.179688 25.453125 C 94.898438 25.453125 92.660156 25.765625 90.539063 26.394531 C 88.441406 27.019531 86.554688 28.054688 84.953125 29.5 C 83.347656 30.945313 82.039063 32.863281 81.074219 35.226563 C 80.09375 37.59375 79.601563 40.59375 79.601563 44.140625 L 79.601563 49.070313 C 79.601563 52.613281 80.09375 55.613281 81.074219 57.984375 C 82.039063 60.34375 83.347656 62.273438 84.953125 63.710938 C 86.554688 65.152344 88.441406 66.191406 90.539063 66.8125 C 94.777344 68.066406 99.585938 68.066406 103.832031 66.8125 C 105.933594 66.191406 107.808594 65.152344 109.417969 63.710938 C 111.027344 62.273438 112.332031 60.34375 113.300781 57.984375 C 114.277344 55.613281 114.769531 52.613281 114.769531 49.070313 L 114.769531 44.140625 C 114.769531 40.59375 114.277344 37.59375 113.300781 35.226563 "/>
<path style=" stroke:none;fill-rule:nonzero;fill:rgb(100%,100%,100%);fill-opacity:1;" d="M 142.546875 40.292969 C 142.546875 41.15625 142.207031 41.953125 141.550781 42.652344 C 140.875 43.378906 139.777344 43.726563 138.203125 43.726563 L 133.527344 43.726563 L 133.527344 35.734375 L 138.203125 35.734375 C 139.761719 35.734375 140.84375 36.019531 141.515625 36.601563 C 142.199219 37.195313 142.546875 38.0625 142.546875 39.160156 Z M 156.398438 66.183594 L 148.339844 51.007813 L 148.761719 50.824219 C 149.488281 50.496094 150.230469 50.027344 150.976563 49.433594 C 151.710938 48.84375 152.394531 48.101563 152.992188 47.234375 C 153.597656 46.363281 154.097656 45.332031 154.476563 44.175781 C 154.859375 43.015625 155.050781 41.691406 155.050781 40.238281 L 155.050781 39.105469 C 155.050781 36.503906 154.632813 34.308594 153.820313 32.585938 C 153 30.875 151.816406 29.472656 150.277344 28.429688 C 148.71875 27.371094 146.808594 26.601563 144.585938 26.144531 C 142.335938 25.6875 139.777344 25.453125 136.984375 25.453125 C 136.007813 25.453125 134.902344 25.472656 133.683594 25.503906 C 132.472656 25.539063 131.253906 25.601563 130.058594 25.679688 C 128.875 25.746094 127.785156 25.824219 126.800781 25.902344 C 125.828125 25.980469 125.09375 26.050781 124.617188 26.128906 C 123.894531 26.230469 123.289063 26.378906 122.804688 26.550781 C 122.371094 26.714844 122.015625 26.949219 121.765625 27.253906 C 121.507813 27.554688 121.316406 27.960938 121.203125 28.453125 C 121.082031 28.988281 121.015625 29.671875 121.015625 30.503906 L 121.015625 66.492188 C 121.015625 66.675781 121.089844 66.820313 121.246094 66.96875 C 121.410156 67.125 121.574219 67.191406 121.773438 67.191406 L 132.824219 67.191406 C 133.007813 67.191406 133.164063 67.125 133.308594 66.976563 C 133.457031 66.828125 133.527344 66.683594 133.527344 66.492188 L 133.527344 52.761719 L 136.035156 52.761719 L 142.898438 66.292969 C 143.039063 66.570313 143.183594 66.8125 143.339844 67.027344 C 143.367188 67.0625 143.503906 67.191406 144.050781 67.191406 L 155.9375 67.191406 C 156.09375 67.191406 156.226563 67.140625 156.355469 67.019531 C 156.476563 66.917969 156.527344 66.785156 156.527344 66.605469 C 156.527344 66.484375 156.484375 66.335938 156.398438 66.183594 "/>
<path style=" stroke:none;fill-rule:nonzero;fill:rgb(100%,100%,100%);fill-opacity:1;" d="M 183.507813 49.183594 C 183.507813 50.703125 183.421875 51.984375 183.246094 52.988281 C 183.066406 54.023438 182.753906 54.863281 182.332031 55.476563 C 181.882813 56.117188 181.257813 56.574219 180.496094 56.835938 C 179.769531 57.066406 178.890625 57.199219 177.867188 57.199219 L 174.9375 57.199219 L 174.9375 36.011719 L 177.867188 36.011719 C 178.890625 36.011719 179.769531 36.132813 180.496094 36.375 C 181.257813 36.636719 181.882813 37.085938 182.332031 37.722656 C 182.753906 38.347656 183.066406 39.1875 183.246094 40.222656 C 183.421875 41.226563 183.507813 42.503906 183.507813 44.027344 Z M 194.851563 35.527344 C 193.980469 33.183594 192.726563 31.246094 191.140625 29.777344 C 189.550781 28.296875 187.613281 27.199219 185.382813 26.507813 C 183.136719 25.808594 180.601563 25.453125 177.867188 25.453125 C 174.835938 25.453125 172.1875 25.558594 170 25.757813 C 167.820313 25.964844 165.824219 26.222656 164.058594 26.519531 C 163.472656 26.613281 163.039063 26.792969 162.789063 27.054688 C 162.625 27.210938 162.433594 27.597656 162.433594 28.523438 L 162.433594 64.6875 C 162.433594 65.613281 162.625 66 162.789063 66.15625 C 163.039063 66.414063 163.472656 66.589844 164.050781 66.691406 C 165.804688 66.988281 167.804688 67.246094 170 67.445313 C 172.1875 67.652344 174.835938 67.753906 177.867188 67.753906 C 180.601563 67.753906 183.136719 67.402344 185.382813 66.699219 C 187.613281 66.007813 189.550781 64.910156 191.140625 63.433594 C 192.726563 61.960938 193.980469 60.027344 194.851563 57.683594 C 195.734375 55.328125 196.183594 52.46875 196.183594 49.183594 L 196.183594 44.027344 C 196.183594 40.742188 195.734375 37.878906 194.851563 35.527344 "/>
<path style=" stroke:none;fill-rule:nonzero;fill:rgb(100%,100%,100%);fill-opacity:1;" d="M 215.148438 50.175781 L 217.324219 36.496094 C 217.367188 36.238281 217.421875 36.019531 217.5 35.847656 C 217.621094 35.5625 217.898438 35.390625 218.261719 35.390625 C 218.621094 35.390625 218.898438 35.5625 219.03125 35.847656 C 219.097656 36.019531 219.160156 36.226563 219.195313 36.488281 L 219.195313 36.496094 L 221.371094 50.175781 Z M 236.988281 66.597656 L 230.246094 32.398438 C 229.960938 31.039063 229.484375 29.898438 228.84375 29.007813 C 228.203125 28.125 227.390625 27.417969 226.414063 26.898438 C 225.421875 26.378906 224.234375 25.996094 222.894531 25.78125 C 221.527344 25.566406 219.972656 25.453125 218.261719 25.453125 C 216.558594 25.453125 214.992188 25.566406 213.625 25.78125 C 212.285156 25.996094 211.09375 26.378906 210.070313 26.898438 C 209.085938 27.417969 208.253906 28.125 207.625 29.007813 C 206.984375 29.890625 206.527344 31.03125 206.273438 32.398438 L 199.539063 66.578125 C 199.46875 66.847656 199.523438 66.984375 199.574219 67.0625 C 199.632813 67.167969 199.816406 67.195313 199.964844 67.195313 L 211.75 67.195313 C 211.929688 67.195313 212.070313 67.132813 212.191406 66.996094 C 212.355469 66.820313 212.457031 66.621094 212.519531 66.390625 L 213.589844 59.722656 L 222.9375 59.722656 L 224.011719 66.425781 C 224.0625 66.621094 224.164063 66.820313 224.328125 66.996094 C 224.460938 67.132813 224.597656 67.195313 224.78125 67.195313 L 236.566406 67.195313 C 236.703125 67.195313 236.894531 67.167969 236.953125 67.0625 C 236.996094 66.984375 237.058594 66.847656 236.988281 66.597656 "/>
<path style=" stroke:none;fill-rule:nonzero;fill:rgb(100%,100%,100%);fill-opacity:1;" d="M 277.785156 26.230469 C 277.640625 26.085938 277.484375 26.015625 277.292969 26.015625 L 266.875 26.015625 C 266.683594 26.015625 266.527344 26.085938 266.382813 26.230469 C 266.242188 26.371094 266.175781 26.527344 266.175781 26.714844 L 266.175781 42.78125 C 266.175781 43.085938 266.148438 43.429688 265.898438 43.597656 C 265.65625 43.761719 265.316406 43.769531 265.03125 43.621094 C 264.867188 43.542969 264.722656 43.363281 264.515625 43 L 255.003906 27.390625 C 254.785156 27.003906 254.535156 26.664063 254.222656 26.378906 C 253.964844 26.136719 253.636719 26.015625 253.21875 26.015625 L 243.925781 26.015625 C 243.519531 26.015625 243.164063 26.171875 242.84375 26.484375 C 242.53125 26.792969 242.378906 27.148438 242.378906 27.5625 L 242.378906 66.492188 C 242.378906 66.675781 242.445313 66.820313 242.601563 66.96875 C 242.765625 67.125 242.9375 67.195313 243.128906 67.195313 L 253.453125 67.195313 C 253.644531 67.195313 253.808594 67.125 253.972656 66.96875 C 254.128906 66.820313 254.207031 66.675781 254.207031 66.492188 L 254.207031 50.875 C 254.207031 50.003906 254.75 49.933594 254.914063 49.933594 C 255.269531 49.933594 255.582031 50.160156 255.859375 50.589844 L 265.25 66.15625 C 265.421875 66.460938 265.636719 66.710938 265.890625 66.917969 C 266.121094 67.105469 266.382813 67.195313 266.699219 67.195313 L 276.4375 67.195313 C 276.851563 67.195313 277.207031 67.039063 277.527344 66.726563 C 277.847656 66.40625 277.996094 66.050781 277.996094 65.644531 L 277.996094 26.714844 C 277.996094 26.527344 277.925781 26.378906 277.785156 26.230469 "/>
<path style=" stroke:none;fill-rule:nonzero;fill:rgb(100%,100%,100%);fill-opacity:1;" d="M 72.539063 26.683594 C 72.539063 26.492188 72.46875 26.335938 72.320313 26.1875 C 72.175781 26.039063 72.019531 25.980469 71.828125 25.980469 L 60.691406 26.007813 C 60.5 26.007813 60.328125 26.078125 60.164063 26.230469 C 60 26.378906 59.929688 26.527344 59.929688 26.714844 L 60 56.460938 C 60 57.292969 59.902344 57.820313 59.695313 58.132813 C 59.464844 58.484375 59.003906 58.667969 58.3125 58.667969 L 53.425781 58.675781 C 53.238281 58.675781 53.082031 58.746094 52.933594 58.894531 C 52.789063 59.039063 52.71875 59.195313 52.71875 59.386719 L 52.734375 67.03125 C 52.734375 67.203125 52.796875 67.324219 52.925781 67.4375 C 53.097656 67.582031 53.316406 67.6875 53.554688 67.746094 C 54.363281 67.867188 57.457031 67.953125 58.78125 67.996094 L 59.152344 68.007813 C 60.363281 68.039063 61.382813 68.058594 62.214844 68.058594 C 63.761719 68.050781 65.195313 67.84375 66.484375 67.4375 C 67.738281 67.035156 68.835938 66.390625 69.726563 65.507813 C 70.628906 64.625 71.335938 63.433594 71.84375 61.972656 C 72.355469 60.476563 72.605469 58.617188 72.605469 56.4375 "/>
<path style=" stroke:none;fill-rule:nonzero;fill:rgb(0.39978%,0.799561%,0.799561%);fill-opacity:1;" d="M 71.464844 307.300781 C 48.386719 274.214844 36.183594 236.859375 36.183594 199.273438 L 36.183594 93.507813 L 15.03125 93.507813 L 15.03125 199.273438 C 15.03125 241.21875 28.542969 282.753906 54.117188 319.402344 C 78.925781 354.972656 114.710938 382.484375 157.742188 404.542969 L 157.742188 383.417969 C 122.089844 363.492188 92.4375 337.363281 71.464844 307.300781 "/>
<path style=" stroke:none;fill-rule:nonzero;fill:rgb(5.099487%,50.19989%,28.199768%);fill-opacity:1;" d="M 294.53125 93.507813 L 294.53125 199.273438 C 294.53125 236.859375 282.328125 274.214844 259.253906 307.300781 C 238.28125 337.363281 208.628906 363.492188 172.976563 383.417969 L 172.976563 404.542969 C 216.007813 382.484375 251.789063 354.972656 276.609375 319.402344 C 302.175781 282.753906 315.6875 241.21875 315.6875 199.273438 L 315.6875 93.507813 "/>
<path style=" stroke:none;fill-rule:nonzero;fill:rgb(75.68512%,3.921509%,18.431091%);fill-opacity:1;" d="M 51.207031 93.507813 L 51.207031 204.738281 C 51.207031 271.027344 94.25 332.730469 165.355469 368.367188 C 236.464844 332.730469 279.507813 271.027344 279.507813 204.738281 L 279.507813 93.507813 "/>
<path style=" stroke:none;fill-rule:nonzero;fill:rgb(100%,100%,100%);fill-opacity:1;" d="M 165.355469 157.015625 L 179.613281 182.988281 L 208.808594 177.941406 L 197.390625 205.28125 L 219.539063 224.960938 L 191.046875 233.078125 L 189.472656 262.664063 L 165.355469 245.449219 L 141.242188 262.664063 L 139.667969 233.078125 L 111.175781 224.960938 L 133.324219 205.28125 L 121.90625 177.941406 L 151.101563 182.988281 "/>
</g>
</svg>
